<svg xmlns="http://www.w3.org/2000/svg" viewBox="0 0 24 24" fill="#000000">
  <path d="M12 0C5.373 0 0 5.373 0 12c0 5.302 3.438 9.8 8.207 11.387.599.111.793-.261.793-.577v-2.234c-3.338.726-4.033-1.416-4.033-1.416-.546-1.387-1.333-1.756-1.333-1.756-1.089-.745.083-.729.083-.729 1.205.084 1.839 1.237 1.839 1.237 1.07 1.834 2.807 1.304 3.492.997.107-.775.418-1.305.762-1.604-2.665-.305-5.467-1.334-5.467-5.931 0-1.311.469-2.381 1.236-3.221-.118-.303-.535-1.524.117-3.176 0 0 1.008-.322 3.301 1.23A11.52 11.52 0 0 1 12 6.844c1.02.005 2.047.138 3.006.404 2.291-1.552 3.297-1.23 3.297-1.23.653 1.653.236 2.873.117 3.176.768.84 1.236 1.91 1.236 3.221 0 4.609-2.807 5.624-5.479 5.921.43.372.823 1.103.823 2.222v3.293c0 .319.194.694.801.576C20.565 21.796 24 17.299 24 12c0-6.627-5.373-12-12-12Z"/>
</svg>